<svg xmlns="http://www.w3.org/2000/svg" width="256" height="256" viewBox="0 0 100 100"><rect width="100" height="100" rx="20" fill="#171757"></rect><path fill="#fff" d="M11.24 25.13L11.24 74.90L24.60 74.90Q27.92 74.90 30.84 74.08Q33.76 73.26 36.19 71.72L36.19 71.72Q38.28 70.42 40.02 68.49Q41.76 66.56 43.06 64.27L43.06 64.27Q44.43 61.71 45.18 58.63Q45.93 55.55 45.93 52.10L45.93 52.10L45.93 48.00Q45.93 44.41 45.13 41.23Q44.33 38.05 42.86 35.42L42.86 35.42Q41.59 33.27 39.90 31.44Q38.21 29.61 36.05 28.35L36.05 28.35Q33.59 26.81 30.59 25.97Q27.58 25.13 24.13 25.13L24.13 25.13L11.24 25.13ZM20.91 67.18L20.91 32.93L24.13 32.93Q25.87 32.93 27.36 33.32Q28.84 33.71 30.07 34.43L30.07 34.43Q31.68 35.39 32.89 36.89Q34.11 38.40 34.86 40.31L34.86 40.31Q35.47 41.92 35.80 43.85Q36.12 45.78 36.12 47.93L36.12 47.93L36.12 52.10Q36.12 54.39 35.80 56.36Q35.47 58.32 34.86 59.93L34.86 59.93Q34.11 61.77 33.06 63.16Q32.02 64.54 30.72 65.43L30.72 65.43Q29.46 66.29 27.92 66.73Q26.38 67.18 24.60 67.18L24.60 67.18L20.91 67.18ZM79.29 61.91L79.29 61.91Q79.29 63.24 78.75 64.36Q78.20 65.47 77.17 66.25L77.17 66.25Q76.15 67.04 74.66 67.48Q73.17 67.93 71.26 67.93L71.26 67.93Q69.11 67.93 67.31 67.45Q65.52 66.97 64.25 65.94L64.25 65.94Q62.95 64.92 62.24 63.31Q61.52 61.71 61.45 59.45L61.45 59.45L52.02 59.45Q52.02 63.31 53.50 66.18Q54.99 69.06 57.55 71.17L57.55 71.17Q60.25 73.33 63.89 74.44Q67.53 75.55 71.26 75.55L71.26 75.55Q75.05 75.55 78.27 74.64Q81.48 73.74 83.80 71.96L83.80 71.96Q86.13 70.22 87.44 67.67Q88.76 65.12 88.76 61.84L88.76 61.84Q88.76 58.05 87.02 55.14Q85.27 52.24 82.33 50.05L82.33 50.05Q80.39 48.72 78.06 47.69Q75.74 46.67 73.17 45.95L73.17 45.95Q70.78 45.30 68.88 44.55Q66.99 43.80 65.65 42.87L65.65 42.87Q64.32 41.98 63.62 40.86Q62.92 39.73 62.92 38.33L62.92 38.33Q62.92 36.99 63.45 35.85Q63.98 34.70 65.00 33.85L65.00 33.85Q66.03 33.03 67.52 32.57Q69.00 32.11 70.92 32.11L70.92 32.11Q73.00 32.11 74.56 32.67Q76.11 33.23 77.17 34.23L77.17 34.23Q78.20 35.25 78.73 36.65Q79.26 38.05 79.33 39.73L79.33 39.73L88.69 39.73Q88.69 36.38 87.39 33.58Q86.09 30.77 83.77 28.72L83.77 28.72Q81.45 26.71 78.22 25.58Q74.99 24.45 71.09 24.45L71.09 24.45Q67.33 24.45 64.12 25.42Q60.90 26.40 58.54 28.21L58.54 28.21Q56.19 30.02 54.85 32.59Q53.52 35.15 53.52 38.29L53.52 38.29Q53.52 41.03 54.53 43.35Q55.54 45.68 57.52 47.59L57.52 47.59Q59.50 49.50 62.63 51.11Q65.76 52.72 69.89 53.85L69.89 53.85Q72.56 54.56 74.35 55.40Q76.15 56.24 77.28 57.23L77.28 57.23Q78.37 58.25 78.83 59.42Q79.29 60.58 79.29 61.91Z"></path></svg>