<svg xmlns="http://www.w3.org/2000/svg" version="1.1" xmlns:xlink="http://www.w3.org/1999/xlink" xmlns:svgjs="http://svgjs.dev/svgjs" width="1440" height="560" preserveAspectRatio="none" viewBox="0 0 1440 560"><g mask="url(&quot;#SvgjsMask1000&quot;)" fill="none"><rect width="1440" height="560" x="0" y="0" fill="#0e2a47"></rect><path d="M0,532.826C113.445,550.314,238.766,583.73,337.284,524.825C436.179,465.695,481.951,343.582,505.244,230.737C525.898,130.673,478.419,34.329,459.244,-66.029C441.11,-160.941,456.31,-267.616,395.654,-342.836C334.443,-418.745,225.653,-425.722,136.799,-465.895C30.915,-513.767,-62.688,-624.34,-176.641,-601.583C-289.873,-578.97,-338.925,-446.367,-411.341,-356.429C-480.931,-270,-575.932,-194.909,-592.437,-85.18C-608.973,24.751,-557.352,133.224,-499.25,228C-445.752,315.266,-363.842,376.872,-276.48,430.212C-190.845,482.498,-99.164,517.54,0,532.826" fill="#0b2239"></path><path d="M1440 1226.8429999999998C1561.797 1212.288 1657.054 1118.059 1741.413 1029.008 1812.034 954.4590000000001 1825.382 847.73 1880.946 761.373 1949.3890000000001 654.999 2126.547 589.019 2104.669 464.435 2082.523 338.328 1876.416 351.257 1792.016 254.976 1708.435 159.62900000000002 1743.152-26.94399999999996 1627.795-79.57000000000005 1516.246-130.45799999999997 1389.686-36.50400000000002 1282.138 22.37099999999998 1191.262 72.11900000000003 1131.54 155.76 1060.374 231.05200000000002 985.5219999999999 310.244 890.444 373.125 853.655 475.696 812.743 589.761 802.678 718.185 844.916 831.7660000000001 888.5 948.967 984.262 1037.88 1088.437 1107.042 1193.712 1176.935 1314.529 1241.838 1440 1226.8429999999998" fill="#113255"></path></g><defs><mask id="SvgjsMask1000"><rect width="1440" height="560" fill="#ffffff"></rect></mask></defs></svg>